<svg width="20" height="19" viewBox="0 0 20 19" fill="none" xmlns="http://www.w3.org/2000/svg">
<g clip-path="url(#clip0_276_381)">
<path d="M2.58081 6.98926H1.0202C0.964417 6.98926 0.919193 7.03374 0.919193 7.0886V15.5728C0.919193 15.6277 0.964417 15.6721 1.0202 15.6721H2.58081C2.6366 15.6721 2.68182 15.6277 2.68182 15.5728V7.0886C2.68182 7.03374 2.6366 6.98926 2.58081 6.98926Z" fill="#198E6B"/>
<path d="M6.69697 6.98926H5.13636C5.08058 6.98926 5.03535 7.03374 5.03535 7.0886V15.5728C5.03535 15.6277 5.08058 15.6721 5.13636 15.6721H6.69697C6.75276 15.6721 6.79798 15.6277 6.79798 15.5728V7.0886C6.79798 7.03374 6.75276 6.98926 6.69697 6.98926Z" fill="#198E6B"/>
<path d="M10.7778 6.98926H9.21717C9.16139 6.98926 9.11616 7.03374 9.11616 7.0886V15.5728C9.11616 15.6277 9.16139 15.6721 9.21717 15.6721H10.7778C10.8336 15.6721 10.8788 15.6277 10.8788 15.5728V7.0886C10.8788 7.03374 10.8336 6.98926 10.7778 6.98926Z" fill="#198E6B"/>
<path d="M14.9242 6.98926H13.3636C13.3078 6.98926 13.2626 7.03374 13.2626 7.0886V15.5728C13.2626 15.6277 13.3078 15.6721 13.3636 15.6721H14.9242C14.98 15.6721 15.0253 15.6277 15.0253 15.5728V7.0886C15.0253 7.03374 14.98 6.98926 14.9242 6.98926Z" fill="#198E6B"/>
<path d="M19.0404 6.98926H17.4798C17.424 6.98926 17.3788 7.03374 17.3788 7.0886V15.5728C17.3788 15.6277 17.424 15.6721 17.4798 15.6721H19.0404C19.0962 15.6721 19.1414 15.6277 19.1414 15.5728V7.0886C19.1414 7.03374 19.0962 6.98926 19.0404 6.98926Z" fill="#198E6B"/>
<path d="M19.0808 5.57324H0.924241C0.868455 5.57324 0.823231 5.61772 0.823231 5.67259V6.39285C0.823231 6.44772 0.868455 6.4922 0.924241 6.4922H19.0808C19.1366 6.4922 19.1818 6.44772 19.1818 6.39285V5.67259C19.1818 5.61772 19.1366 5.57324 19.0808 5.57324Z" fill="#198E6B"/>
<path d="M19.899 17.4702H0.10101C0.0452238 17.4702 0 17.5147 0 17.5696V18.9008C0 18.9557 0.0452238 19.0002 0.10101 19.0002H19.899C19.9548 19.0002 20 18.9557 20 18.9008V17.5696C20 17.5147 19.9548 17.4702 19.899 17.4702Z" fill="#198E6B"/>
<path d="M19.0808 16.1138H0.924241C0.868455 16.1138 0.823231 16.1582 0.823231 16.2131V16.9334C0.823231 16.9882 0.868455 17.0327 0.924241 17.0327H19.0808C19.1366 17.0327 19.1818 16.9882 19.1818 16.9334V16.2131C19.1818 16.1582 19.1366 16.1138 19.0808 16.1138Z" fill="#198E6B"/>
<path d="M0.823231 4.77376L10 0.248535L19.1768 4.77376H0.823231Z" fill="#198E6B"/>
<path d="M19.1768 5.02173H0.823232C0.767343 5.02092 0.713306 5.00189 0.669592 4.96763C0.625878 4.93338 0.594957 4.88582 0.581673 4.83242C0.568388 4.77902 0.573491 4.7228 0.596184 4.67256C0.618877 4.62232 0.657875 4.5809 0.707068 4.5548L9.88384 0.0196388C9.91919 0.00254223 9.95807 -0.00634766 9.99748 -0.00634766C10.0369 -0.00634766 10.0757 0.00254223 10.1111 0.0196388L19.2929 4.54984C19.3421 4.57594 19.3811 4.61735 19.4038 4.66759C19.4265 4.71783 19.4316 4.77405 19.4183 4.82745C19.405 4.88085 19.3741 4.92841 19.3304 4.96267C19.2867 4.99693 19.2327 5.01595 19.1768 5.01676V5.02173ZM1.88888 4.525H18.1111L10 0.551142L1.88888 4.525Z" fill="#198E6B"/>
</g>
<defs>
<clipPath id="clip0_276_381">
<rect width="20" height="19" fill="white"/>
</clipPath>
</defs>
</svg>
