<svg width="20" height="16" viewBox="0 0 20 16" fill="none" xmlns="http://www.w3.org/2000/svg">
<g clip-path="url(#clip0_276_377)">
<path fill-rule="evenodd" clip-rule="evenodd" d="M1.20202 3.24184H17.904C18.2259 3.23631 18.5373 3.35432 18.7727 3.57102C18.8859 3.6706 18.9765 3.79278 19.0383 3.92949C19.1001 4.0662 19.1318 4.21432 19.1313 4.36404V6.71316H13.8939C13.485 6.70755 13.0901 6.85964 12.7929 7.1371C12.6491 7.26201 12.5335 7.41534 12.4534 7.58717C12.3734 7.75899 12.3307 7.94549 12.3283 8.13461V11.1271C12.3285 11.3166 12.3701 11.5038 12.4503 11.676C12.5305 11.8481 12.6474 12.0012 12.7929 12.1246C13.0895 12.4035 13.4844 12.5573 13.8939 12.5536H19.1313V14.9027C19.1276 15.0517 19.094 15.1986 19.0325 15.3347C18.9709 15.4708 18.8826 15.5935 18.7727 15.6957C18.5307 15.8999 18.2224 16.0114 17.904 16.0099H1.20202C0.891301 16.0112 0.591002 15.8994 0.358585 15.6957C0.248681 15.5935 0.160399 15.4708 0.0988469 15.3347C0.0372951 15.1986 0.0037015 15.0517 3.8147e-06 14.9027V4.36404C0.0016381 4.21684 0.0343711 4.07161 0.0961188 3.93763C0.157867 3.80365 0.247264 3.68388 0.358585 3.58598C0.470299 3.47897 0.602312 3.39481 0.747053 3.33832C0.891793 3.28183 1.04641 3.25413 1.20202 3.25681V3.24184ZM13.8939 7.49122H19.3232C19.4101 7.4899 19.4964 7.5055 19.5772 7.53712C19.658 7.56874 19.7317 7.61576 19.794 7.67551C19.8564 7.73526 19.9063 7.80655 19.9407 7.88532C19.9752 7.9641 19.9936 8.04881 19.995 8.13461V11.1271C19.9936 11.2127 19.9752 11.2972 19.9407 11.3757C19.9061 11.4542 19.8562 11.5252 19.7937 11.5845C19.7313 11.6438 19.6576 11.6904 19.5768 11.7215C19.4961 11.7525 19.4099 11.7675 19.3232 11.7655H13.8939C13.8071 11.7675 13.7206 11.7526 13.6396 11.7216C13.5585 11.6906 13.4845 11.6441 13.4216 11.5848C13.3588 11.5255 13.3084 11.4546 13.2733 11.3761C13.2382 11.2975 13.2191 11.2129 13.2172 11.1271V8.13461C13.2212 7.96087 13.2945 7.79573 13.4213 7.67521C13.5481 7.55468 13.718 7.48854 13.8939 7.49122ZM1.18182 2.5785C4.91919 1.72563 11.5051 0.852816 15.2222 -5.17845e-05C15.3593 -0.0113621 15.4967 0.0176491 15.6172 0.0833274C15.7376 0.149006 15.8357 0.248412 15.899 0.369024L16.5354 2.5785H1.18182ZM16.5051 8.35406C16.7506 8.37059 16.986 8.45765 17.1821 8.60454C17.3783 8.75142 17.5266 8.95171 17.609 9.18078C17.6914 9.40986 17.7042 9.65771 17.6458 9.89386C17.5874 10.13 17.4604 10.3441 17.2803 10.5099C17.1003 10.6757 16.8751 10.7859 16.6325 10.827C16.3899 10.8681 16.1404 10.8382 15.9148 10.7411C15.6891 10.644 15.4971 10.4839 15.3624 10.2804C15.2277 10.0769 15.1562 9.83904 15.1566 9.59596C15.1697 9.25506 15.3189 8.93315 15.5716 8.70048C15.8242 8.46781 16.1598 8.34328 16.5051 8.35406Z" fill="#198E6B"/>
</g>
<defs>
<clipPath id="clip0_276_377">
<rect width="20" height="16" fill="white"/>
</clipPath>
</defs>
</svg>
