<svg width="20" height="13" viewBox="0 0 20 13" fill="none" xmlns="http://www.w3.org/2000/svg">
<g clip-path="url(#clip0_276_370)">
<path d="M10.2093 6.76416V7.79061C10.5826 7.75982 10.8348 7.56479 10.8348 7.27739C10.8298 7.0721 10.6835 6.8976 10.2093 6.76416Z" fill="#198E6B"/>
<path d="M9.19041 5.28617C9.19041 5.54792 9.34174 5.68649 9.8058 5.7994V4.77295C9.43758 4.81401 9.19041 5.03469 9.19041 5.28617Z" fill="#198E6B"/>
<path d="M10.0025 2.40186C9.20441 2.40186 8.42422 2.64266 7.76062 3.09381C7.09702 3.54496 6.5798 4.1862 6.27438 4.93643C5.96896 5.68667 5.88904 6.51221 6.04475 7.30866C6.20045 8.10511 6.58478 8.83669 7.14913 9.4109C7.71347 9.98511 8.4325 10.3761 9.21527 10.5346C9.99804 10.693 10.8094 10.6117 11.5468 10.3009C12.2841 9.99017 12.9144 9.46391 13.3578 8.78872C13.8012 8.11352 14.0378 7.31971 14.0378 6.50766C14.0378 5.41873 13.6127 4.3744 12.8559 3.60441C12.0991 2.83443 11.0728 2.40186 10.0025 2.40186ZM10.2093 8.59135V9.19183C10.2101 9.20078 10.2089 9.20981 10.2059 9.21826C10.2029 9.22671 10.1981 9.23438 10.1918 9.24074C10.1856 9.2471 10.178 9.25199 10.1697 9.25507C10.1614 9.25814 10.1526 9.25933 10.1438 9.25855H9.87137C9.86257 9.25933 9.8537 9.25814 9.84539 9.25507C9.83709 9.25199 9.82955 9.2471 9.8233 9.24074C9.81705 9.23438 9.81224 9.22671 9.80922 9.21826C9.8062 9.20981 9.80503 9.20078 9.8058 9.19183V8.59135C9.30581 8.56857 8.8249 8.38934 8.42875 8.07813C8.41851 8.06401 8.41299 8.04692 8.41299 8.02937C8.41299 8.01182 8.41851 7.99473 8.42875 7.98061L8.7314 7.38014C8.74612 7.37506 8.76207 7.37506 8.77679 7.38014C8.79151 7.37506 8.80747 7.37506 8.82219 7.38014C9.10721 7.60494 9.44413 7.75161 9.80075 7.80612V6.67189C8.87263 6.45634 8.44388 6.05602 8.42371 5.34777C8.42432 5.16788 8.46026 4.98993 8.52943 4.82438C8.59859 4.65883 8.69958 4.50901 8.82646 4.38374C8.95334 4.25847 9.10356 4.16026 9.26827 4.0949C9.43299 4.02953 9.60888 3.99833 9.78562 4.00312V3.78756C9.78562 3.7465 9.78562 3.72084 9.84615 3.72084H10.1236C10.1324 3.72006 10.1412 3.72125 10.1496 3.72432C10.1579 3.7274 10.1654 3.73229 10.1717 3.73865C10.1779 3.74501 10.1827 3.75268 10.1857 3.76113C10.1888 3.76958 10.1899 3.7786 10.1892 3.78756V3.98259C10.61 3.99397 11.0163 4.14137 11.3493 4.40343C11.3596 4.41555 11.3653 4.43104 11.3653 4.44706C11.3653 4.46308 11.3596 4.47856 11.3493 4.49068L11.0921 5.08602C11.0896 5.09601 11.0837 5.10471 11.0752 5.11041C11.0668 5.11611 11.0566 5.1184 11.0467 5.11681C11.0335 5.12113 11.0194 5.12113 11.0063 5.11681C10.7639 4.92801 10.4768 4.80764 10.174 4.76783V5.91745C11.087 6.1484 11.5359 6.49739 11.5662 7.2313C11.5965 7.96522 11.1021 8.5195 10.2093 8.59135Z" fill="#198E6B"/>
<path d="M19.4555 0H0.550101C0.468202 0.00954607 0.388965 0.0354685 0.316947 0.0762798C0.24493 0.117091 0.181551 0.171987 0.130455 0.237806C0.0793602 0.303625 0.0415569 0.379069 0.0192182 0.459805C-0.00312044 0.540541 -0.00955465 0.624975 0.000288104 0.70825V12.3071C-0.0109939 12.3912 -0.00563969 12.4767 0.0160318 12.5586C0.0377033 12.6406 0.0752533 12.7173 0.12648 12.7842C0.177707 12.8512 0.241574 12.907 0.314323 12.9485C0.387072 12.9899 0.467237 13.0162 0.550101 13.0257H19.4555C19.6176 13.0063 19.7657 12.9227 19.8677 12.793C19.9697 12.6633 20.0173 12.498 20.0003 12.3328V0.70825C20.0109 0.625254 20.0051 0.54095 19.9833 0.46024C19.9616 0.37953 19.9243 0.304025 19.8736 0.238119C19.8229 0.172214 19.7598 0.117222 19.6881 0.0763424C19.6163 0.0354629 19.5372 0.00951291 19.4555 0ZM18.6485 8.62218C17.564 8.62218 16.6863 9.73589 16.6863 11.1062H11.6169C11.5413 11.1627 11.4606 11.214 11.3799 11.2653C10.9642 11.5207 10.4884 11.6572 10.0028 11.6605C9.51574 11.6564 9.03859 11.5199 8.62072 11.2653L8.38869 11.1062H3.34455C3.34455 9.73589 2.46687 8.62218 1.38238 8.62218V4.37781C2.46687 4.37781 3.34455 3.26411 3.34455 1.8938H6.56271C6.56271 1.8938 8.58036 1.78089 8.64594 1.7347C9.06103 1.47558 9.53852 1.33843 10.0255 1.33843C10.5125 1.33843 10.99 1.47558 11.4051 1.7347C11.4871 1.78293 11.5663 1.83605 11.6422 1.8938H16.6863C16.6863 3.26411 17.564 4.37781 18.6485 4.37781V8.62218Z" fill="#198E6B"/>
</g>
<defs>
<clipPath id="clip0_276_370">
<rect width="20" height="13" fill="white"/>
</clipPath>
</defs>
</svg>
