<svg width="32" height="32" viewBox="0 0 32 32" fill="none" xmlns="http://www.w3.org/2000/svg">
<circle cx="16" cy="16" r="16" fill="white"/>
<g clip-path="url(#clip0_276_379)">
<path d="M8.58081 12.9893H7.0202C6.96442 12.9893 6.91919 13.0337 6.91919 13.0886V21.5728C6.91919 21.6277 6.96442 21.6721 7.0202 21.6721H8.58081C8.6366 21.6721 8.68182 21.6277 8.68182 21.5728V13.0886C8.68182 13.0337 8.6366 12.9893 8.58081 12.9893Z" fill="#198E6B"/>
<path d="M12.697 12.9893H11.1364C11.0806 12.9893 11.0354 13.0337 11.0354 13.0886V21.5728C11.0354 21.6277 11.0806 21.6721 11.1364 21.6721H12.697C12.7528 21.6721 12.798 21.6277 12.798 21.5728V13.0886C12.798 13.0337 12.7528 12.9893 12.697 12.9893Z" fill="#198E6B"/>
<path d="M16.7778 12.9893H15.2172C15.1614 12.9893 15.1162 13.0337 15.1162 13.0886V21.5728C15.1162 21.6277 15.1614 21.6721 15.2172 21.6721H16.7778C16.8336 21.6721 16.8788 21.6277 16.8788 21.5728V13.0886C16.8788 13.0337 16.8336 12.9893 16.7778 12.9893Z" fill="#198E6B"/>
<path d="M20.9242 12.9893H19.3636C19.3078 12.9893 19.2626 13.0337 19.2626 13.0886V21.5728C19.2626 21.6277 19.3078 21.6721 19.3636 21.6721H20.9242C20.98 21.6721 21.0253 21.6277 21.0253 21.5728V13.0886C21.0253 13.0337 20.98 12.9893 20.9242 12.9893Z" fill="#198E6B"/>
<path d="M25.0404 12.9893H23.4798C23.424 12.9893 23.3788 13.0337 23.3788 13.0886V21.5728C23.3788 21.6277 23.424 21.6721 23.4798 21.6721H25.0404C25.0962 21.6721 25.1414 21.6277 25.1414 21.5728V13.0886C25.1414 13.0337 25.0962 12.9893 25.0404 12.9893Z" fill="#198E6B"/>
<path d="M25.0808 11.5732H6.92424C6.86845 11.5732 6.82323 11.6177 6.82323 11.6726V12.3928C6.82323 12.4477 6.86845 12.4922 6.92424 12.4922H25.0808C25.1366 12.4922 25.1818 12.4477 25.1818 12.3928V11.6726C25.1818 11.6177 25.1366 11.5732 25.0808 11.5732Z" fill="#198E6B"/>
<path d="M25.899 23.4702H6.10101C6.04522 23.4702 6 23.5147 6 23.5696V24.9008C6 24.9557 6.04522 25.0002 6.10101 25.0002H25.899C25.9548 25.0002 26 24.9557 26 24.9008V23.5696C26 23.5147 25.9548 23.4702 25.899 23.4702Z" fill="#198E6B"/>
<path d="M25.0808 22.1138H6.92424C6.86845 22.1138 6.82323 22.1582 6.82323 22.2131V22.9334C6.82323 22.9882 6.86845 23.0327 6.92424 23.0327H25.0808C25.1366 23.0327 25.1818 22.9882 25.1818 22.9334V22.2131C25.1818 22.1582 25.1366 22.1138 25.0808 22.1138Z" fill="#198E6B"/>
<path d="M6.82323 10.7738L16 6.24854L25.1768 10.7738H6.82323Z" fill="#198E6B"/>
<path d="M25.1768 11.0217H6.82323C6.76734 11.0209 6.71331 11.0019 6.66959 10.9676C6.62588 10.9334 6.59496 10.8858 6.58167 10.8324C6.56839 10.779 6.57349 10.7228 6.59618 10.6726C6.61888 10.6223 6.65787 10.5809 6.70707 10.5548L15.8838 6.01964C15.9192 6.00254 15.9581 5.99365 15.9975 5.99365C16.0369 5.99365 16.0757 6.00254 16.1111 6.01964L25.2929 10.5498C25.3421 10.5759 25.3811 10.6173 25.4038 10.6676C25.4265 10.7178 25.4316 10.7741 25.4183 10.8275C25.405 10.8809 25.3741 10.9284 25.3304 10.9627C25.2867 10.9969 25.2327 11.0159 25.1768 11.0168V11.0217ZM7.88888 10.525H24.1111L16 6.55114L7.88888 10.525Z" fill="#198E6B"/>
</g>
<defs>
<clipPath id="clip0_276_379">
<rect width="20" height="19" fill="white" transform="translate(6 6)"/>
</clipPath>
</defs>
</svg>
