<svg width="32" height="32" viewBox="0 0 32 32" fill="none" xmlns="http://www.w3.org/2000/svg">
<circle cx="16" cy="16" r="16" fill="white"/>
<g clip-path="url(#clip0_276_368)">
<path d="M16.2093 15.7642V16.7906C16.5826 16.7598 16.8348 16.5648 16.8348 16.2774C16.8298 16.0721 16.6835 15.8976 16.2093 15.7642Z" fill="#198E6B"/>
<path d="M15.1904 14.2862C15.1904 14.5479 15.3417 14.6865 15.8058 14.7994V13.7729C15.4376 13.814 15.1904 14.0347 15.1904 14.2862Z" fill="#198E6B"/>
<path d="M16.0025 11.4019C15.2044 11.4019 14.4242 11.6427 13.7606 12.0938C13.097 12.545 12.5798 13.1862 12.2744 13.9364C11.969 14.6867 11.889 15.5122 12.0447 16.3087C12.2005 17.1051 12.5848 17.8367 13.1491 18.4109C13.7135 18.9851 14.4325 19.3761 15.2153 19.5346C15.998 19.693 16.8094 19.6117 17.5468 19.3009C18.2841 18.9902 18.9144 18.4639 19.3578 17.7887C19.8012 17.1135 20.0378 16.3197 20.0378 15.5077C20.0378 14.4187 19.6127 13.3744 18.8559 12.6044C18.0991 11.8344 17.0728 11.4019 16.0025 11.4019ZM16.2093 17.5914V18.1918C16.2101 18.2008 16.2089 18.2098 16.2059 18.2183C16.2029 18.2267 16.1981 18.2344 16.1918 18.2407C16.1856 18.2471 16.178 18.252 16.1697 18.2551C16.1614 18.2581 16.1526 18.2593 16.1438 18.2585H15.8714C15.8626 18.2593 15.8537 18.2581 15.8454 18.2551C15.8371 18.252 15.8295 18.2471 15.8233 18.2407C15.817 18.2344 15.8122 18.2267 15.8092 18.2183C15.8062 18.2098 15.805 18.2008 15.8058 18.1918V17.5914C15.3058 17.5686 14.8249 17.3893 14.4287 17.0781C14.4185 17.064 14.413 17.0469 14.413 17.0294C14.413 17.0118 14.4185 16.9947 14.4287 16.9806L14.7314 16.3801C14.7461 16.3751 14.7621 16.3751 14.7768 16.3801C14.7915 16.3751 14.8075 16.3751 14.8222 16.3801C15.1072 16.6049 15.4441 16.7516 15.8008 16.8061V15.6719C14.8726 15.4563 14.4439 15.056 14.4237 14.3478C14.4243 14.1679 14.4603 13.9899 14.5294 13.8244C14.5986 13.6588 14.6996 13.509 14.8265 13.3837C14.9533 13.2585 15.1036 13.1603 15.2683 13.0949C15.433 13.0295 15.6089 12.9983 15.7856 13.0031V12.7876C15.7856 12.7465 15.7856 12.7208 15.8462 12.7208H16.1236C16.1324 12.7201 16.1412 12.7212 16.1496 12.7243C16.1579 12.7274 16.1654 12.7323 16.1717 12.7386C16.1779 12.745 16.1827 12.7527 16.1857 12.7611C16.1888 12.7696 16.1899 12.7786 16.1892 12.7876V12.9826C16.61 12.994 17.0163 13.1414 17.3493 13.4034C17.3596 13.4156 17.3653 13.431 17.3653 13.4471C17.3653 13.4631 17.3596 13.4786 17.3493 13.4907L17.0921 14.086C17.0896 14.096 17.0837 14.1047 17.0752 14.1104C17.0668 14.1161 17.0566 14.1184 17.0467 14.1168C17.0335 14.1211 17.0194 14.1211 17.0063 14.1168C16.7639 13.928 16.4768 13.8076 16.174 13.7678V14.9174C17.087 15.1484 17.5359 15.4974 17.5662 16.2313C17.5965 16.9652 17.1021 17.5195 16.2093 17.5914Z" fill="#198E6B"/>
<path d="M25.4555 9H6.5501C6.4682 9.00955 6.38897 9.03547 6.31695 9.07628C6.24493 9.11709 6.18155 9.17199 6.13046 9.23781C6.07936 9.30363 6.04156 9.37907 6.01922 9.4598C5.99688 9.54054 5.99045 9.62498 6.00029 9.70825V21.3071C5.98901 21.3912 5.99436 21.4767 6.01603 21.5586C6.0377 21.6406 6.07525 21.7173 6.12648 21.7842C6.17771 21.8512 6.24157 21.907 6.31432 21.9485C6.38707 21.9899 6.46724 22.0162 6.5501 22.0257H25.4555C25.6176 22.0063 25.7657 21.9227 25.8677 21.793C25.9697 21.6633 26.0173 21.498 26.0003 21.3328V9.70825C26.0109 9.62525 26.0051 9.54095 25.9833 9.46024C25.9616 9.37953 25.9243 9.30403 25.8736 9.23812C25.8229 9.17221 25.7598 9.11722 25.6881 9.07634C25.6163 9.03546 25.5372 9.00951 25.4555 9ZM24.6485 17.6222C23.564 17.6222 22.6863 18.7359 22.6863 20.1062H17.6169C17.5413 20.1627 17.4606 20.214 17.3799 20.2653C16.9642 20.5207 16.4884 20.6572 16.0028 20.6605C15.5157 20.6564 15.0386 20.5199 14.6207 20.2653L14.3887 20.1062H9.34455C9.34455 18.7359 8.46687 17.6222 7.38238 17.6222V13.3778C8.46687 13.3778 9.34455 12.2641 9.34455 10.8938H12.5627C12.5627 10.8938 14.5804 10.7809 14.6459 10.7347C15.061 10.4756 15.5385 10.3384 16.0255 10.3384C16.5125 10.3384 16.99 10.4756 17.4051 10.7347C17.4871 10.7829 17.5663 10.8361 17.6422 10.8938H22.6863C22.6863 12.2641 23.564 13.3778 24.6485 13.3778V17.6222Z" fill="#198E6B"/>
</g>
<defs>
<clipPath id="clip0_276_368">
<rect width="20" height="13" fill="white" transform="translate(6 9)"/>
</clipPath>
</defs>
</svg>
