<svg width="32" height="32" viewBox="0 0 32 32" fill="none" xmlns="http://www.w3.org/2000/svg">
<circle cx="16" cy="16" r="16" fill="#4B67FD"/>
<g clip-path="url(#clip0_276_205)">
<path d="M25.6671 9.14372H24.8348C24.75 9.14097 24.6676 9.17182 24.6053 9.22961C24.543 9.28739 24.5058 9.36746 24.5019 9.45251V13.7147C24.5058 13.8002 24.5428 13.8808 24.6049 13.9394C24.6671 13.998 24.7495 14.03 24.8348 14.0286H25.6671C25.7523 14.03 25.8348 13.998 25.897 13.9394C25.9591 13.8808 25.9961 13.8002 26 13.7147V9.45251C25.9961 9.36746 25.9589 9.28739 25.8966 9.22961C25.8343 9.17182 25.7519 9.14097 25.6671 9.14372Z" fill="white"/>
<path d="M25.1677 16.5035H23.9218V7.24511C23.916 7.07556 23.8769 6.90884 23.8067 6.75447C23.7366 6.6001 23.6369 6.46112 23.5132 6.34547C23.3895 6.22981 23.2443 6.13976 23.086 6.08046C22.9276 6.02116 22.7591 5.99377 22.5902 5.99986H9.32409C8.98375 5.98893 8.65298 6.11388 8.4043 6.34731C8.15562 6.58074 8.00932 6.9036 7.99748 7.24511V23.479C8.00932 23.8205 8.15562 24.1433 8.4043 24.3768C8.65298 24.6102 8.98375 24.7352 9.32409 24.7242H9.67213V25.686C9.67342 25.7283 9.6831 25.77 9.7006 25.8085C9.71811 25.8471 9.74308 25.8817 9.77407 25.9105C9.80506 25.9392 9.84145 25.9615 9.8811 25.9759C9.92076 25.9904 9.96289 25.9968 10.005 25.9948H11.8361C11.9209 25.9975 12.0033 25.9667 12.0656 25.9089C12.1279 25.8511 12.165 25.7711 12.169 25.686V24.7242H19.7352V25.686C19.7365 25.7283 19.7462 25.77 19.7637 25.8085C19.7812 25.8471 19.8061 25.8817 19.8371 25.9105C19.8681 25.9392 19.9045 25.9615 19.9442 25.9759C19.9838 25.9904 20.0259 25.9968 20.0681 25.9948H21.8991C21.9839 25.9975 22.0664 25.9667 22.1287 25.9089C22.191 25.8511 22.2281 25.7711 22.232 25.686V24.7242H22.575C22.744 24.7303 22.9124 24.7029 23.0708 24.6436C23.2292 24.5843 23.3744 24.4943 23.4981 24.3786C23.6218 24.263 23.7215 24.124 23.7916 23.9696C23.8617 23.8152 23.9008 23.6485 23.9067 23.479V16.6453H25.319V14.0282H25.1526L25.1677 16.5035ZM12.5069 6.97682C12.5082 6.93449 12.5179 6.89285 12.5354 6.85431C12.5529 6.81578 12.5779 6.78112 12.6089 6.75238C12.6399 6.72364 12.6763 6.70137 12.7159 6.68689C12.7556 6.67241 12.7977 6.666 12.8398 6.66804H19.1602C19.2023 6.666 19.2444 6.67241 19.2841 6.68689C19.3237 6.70137 19.3601 6.72364 19.3911 6.75238C19.4221 6.78112 19.4471 6.81578 19.4646 6.85431C19.4821 6.89285 19.4918 6.93449 19.4931 6.97682V7.78168C19.4918 7.82423 19.4821 7.86611 19.4647 7.90492C19.4472 7.94372 19.4223 7.9787 19.3914 8.00785C19.3605 8.03699 19.3242 8.05974 19.2845 8.07478C19.2448 8.08983 19.2026 8.09688 19.1602 8.09553H12.8398C12.7974 8.09688 12.7552 8.08983 12.7155 8.07478C12.6758 8.05974 12.6395 8.03699 12.6086 8.00785C12.5777 7.9787 12.5528 7.94372 12.5353 7.90492C12.5179 7.86611 12.5082 7.82423 12.5069 7.78168V6.97682ZM13.4149 21.6567C13.4109 21.7417 13.3738 21.8218 13.3115 21.8795C13.2492 21.9373 13.1668 21.9682 13.082 21.9654H9.70744C9.66529 21.9675 9.62316 21.9611 9.5835 21.9466C9.54384 21.9321 9.50746 21.9098 9.47647 21.8811C9.44548 21.8524 9.4205 21.8177 9.403 21.7792C9.3855 21.7406 9.37582 21.699 9.37453 21.6567V20.5784C9.37583 20.5359 9.38548 20.494 9.40292 20.4552C9.42036 20.4164 9.44525 20.3814 9.47617 20.3523C9.50709 20.3231 9.54343 20.3004 9.58311 20.2853C9.62279 20.2703 9.66504 20.2632 9.70744 20.2646H13.082C13.1672 20.2632 13.2497 20.2952 13.3118 20.3538C13.374 20.4124 13.411 20.493 13.4149 20.5784V21.6567ZM22.5397 21.6567C22.5384 21.699 22.5288 21.7406 22.5113 21.7792C22.4937 21.8177 22.4688 21.8524 22.4378 21.8811C22.4068 21.9098 22.3704 21.9321 22.3307 21.9466C22.2911 21.9611 22.249 21.9675 22.2068 21.9654H18.8323C18.7475 21.9682 18.665 21.9373 18.6027 21.8795C18.5404 21.8218 18.5033 21.7417 18.4994 21.6567V20.5784C18.5033 20.493 18.5403 20.4124 18.6024 20.3538C18.6646 20.2952 18.747 20.2632 18.8323 20.2646H22.2068C22.2492 20.2632 22.2915 20.2703 22.3311 20.2853C22.3708 20.3004 22.4072 20.3231 22.4381 20.3523C22.469 20.3814 22.4939 20.4164 22.5113 20.4552C22.5288 20.494 22.5384 20.5359 22.5397 20.5784V21.6567ZM22.681 16.8731C18.2287 19.593 13.7747 19.593 9.31904 16.8731V9.14336H22.681V16.8731Z" fill="white"/>
<path d="M7.49811 13.7144V9.45222C7.49418 9.36718 7.45705 9.2871 7.39475 9.22932C7.33245 9.17154 7.24998 9.14068 7.1652 9.14344H6.33291C6.29076 9.1414 6.24863 9.14781 6.20897 9.16229C6.16932 9.17677 6.13293 9.19903 6.10194 9.22778C6.07095 9.25652 6.04598 9.29117 6.02847 9.32971C6.01097 9.36824 6.00129 9.40989 6 9.45222V13.7144C6.0013 13.757 6.01095 13.7989 6.02839 13.8377C6.04583 13.8765 6.07072 13.9114 6.10164 13.9406C6.13256 13.9697 6.1689 13.9925 6.20858 14.0075C6.24827 14.0226 6.29051 14.0296 6.33291 14.0283H7.1652C7.25046 14.0297 7.33292 13.9977 7.39507 13.9391C7.45722 13.8805 7.49418 13.7999 7.49811 13.7144Z" fill="white"/>
<path d="M6.74653 14.0332H6.58007V16.6452H7.99748V16.4883H6.74653V14.0332Z" fill="white"/>
</g>
<defs>
<clipPath id="clip0_276_205">
<rect width="20" height="20" fill="white" transform="translate(6 6)"/>
</clipPath>
</defs>
</svg>
