<svg width="32" height="32" viewBox="0 0 32 32" fill="none" xmlns="http://www.w3.org/2000/svg">
<circle cx="16" cy="16" r="16" fill="#FDC04B"/>
<g clip-path="url(#clip0_276_221)">
<path d="M20.0726 6.00008H9.3876C9.20412 5.99809 9.02206 6.03266 8.85197 6.10181C8.68188 6.17095 8.52713 6.2733 8.39669 6.40291C8.26624 6.53253 8.16269 6.68685 8.09201 6.85693C8.02134 7.02701 7.98496 7.20949 7.98497 7.39379V24.6064C7.98497 24.976 8.13116 25.3305 8.39139 25.5919C8.65162 25.8532 9.00456 26.0001 9.37257 26.0001H20.0726C20.4407 26.0001 20.7936 25.8532 21.0538 25.5919C21.314 25.3305 21.4602 24.976 21.4602 24.6064V16.9938C20.9996 17.1545 20.5152 17.2362 20.0276 17.2353C18.8874 17.1966 17.8068 16.7145 17.0139 15.8908C16.221 15.067 15.7777 13.966 15.7777 12.8202C15.7777 11.6744 16.221 10.5734 17.0139 9.74964C17.8068 8.92587 18.8874 8.44378 20.0276 8.40511C20.5152 8.40426 20.9996 8.4859 21.4602 8.64662V7.39379C21.4602 7.21077 21.4243 7.02953 21.3546 6.86044C21.2849 6.69135 21.1827 6.53771 21.0538 6.40829C20.925 6.27887 20.772 6.17621 20.6036 6.10617C20.4353 6.03613 20.2549 6.00008 20.0726 6.00008ZM9.93863 10.2567C9.93858 10.2428 9.94369 10.2295 9.95296 10.2192C9.96224 10.209 9.975 10.2026 9.98873 10.2013H13.2899C13.3036 10.2026 13.3164 10.209 13.3257 10.2192C13.335 10.2295 13.3401 10.2428 13.34 10.2567V10.7598C13.3401 10.7737 13.335 10.787 13.3257 10.7973C13.3164 10.8075 13.3036 10.8139 13.2899 10.8152H9.98873C9.975 10.8139 9.96224 10.8075 9.95296 10.7973C9.94369 10.787 9.93858 10.7737 9.93863 10.7598V10.2567ZM9.93863 13.985C9.93976 13.972 9.9454 13.9599 9.95456 13.9507C9.96372 13.9415 9.97582 13.9358 9.98873 13.9347H13.2899C13.3028 13.9358 13.3149 13.9415 13.3241 13.9507C13.3332 13.9599 13.3389 13.972 13.34 13.985V14.4881C13.34 14.5015 13.3347 14.5143 13.3253 14.5237C13.3159 14.5331 13.3032 14.5384 13.2899 14.5384H9.98873C9.97544 14.5384 9.9627 14.5331 9.95331 14.5237C9.94391 14.5143 9.93863 14.5015 9.93863 14.4881V13.985ZM17.4527 21.7485C17.4516 21.7615 17.446 21.7736 17.4368 21.7828C17.4276 21.792 17.4155 21.7977 17.4026 21.7988H9.98873C9.97582 21.7977 9.96372 21.792 9.95456 21.7828C9.9454 21.7736 9.93976 21.7615 9.93863 21.7485V21.2454C9.93858 21.2315 9.94369 21.2181 9.95296 21.2079C9.96224 21.1977 9.975 21.1913 9.98873 21.19H17.3976C17.4113 21.1913 17.4241 21.1977 17.4334 21.2079C17.4427 21.2181 17.4478 21.2315 17.4477 21.2454L17.4527 21.7485ZM17.4026 17.668C17.4159 17.668 17.4287 17.6733 17.4381 17.6827C17.4474 17.6922 17.4527 17.705 17.4527 17.7183V18.2215C17.4527 18.2348 17.4474 18.2476 17.4381 18.257C17.4287 18.2665 17.4159 18.2718 17.4026 18.2718H9.98873C9.97544 18.2718 9.9627 18.2665 9.95331 18.257C9.94391 18.2476 9.93863 18.2348 9.93863 18.2215V17.7183C9.93863 17.705 9.94391 17.6922 9.95331 17.6827C9.9627 17.6733 9.97544 17.668 9.98873 17.668H17.4026Z" fill="white"/>
<path d="M20.3381 13.0742V14.0805C20.6988 14.0503 20.9393 13.8692 20.9393 13.5774C20.9393 13.2855 20.794 13.205 20.3381 13.0742Z" fill="white"/>
<path d="M19.3613 11.6804C19.3613 11.9219 19.5116 12.0577 19.9524 12.1835V11.1772C19.6018 11.2376 19.3613 11.4389 19.3613 11.6804Z" fill="white"/>
<path d="M20.1428 8.94826C19.3797 8.95025 18.6344 9.1792 18.0008 9.60622C17.3672 10.0332 16.8737 10.6392 16.5826 11.3476C16.2916 12.056 16.2159 12.8352 16.3653 13.5868C16.5146 14.3383 16.8822 15.0286 17.4218 15.5705C17.9613 16.1124 18.6486 16.4817 19.3969 16.6317C20.1451 16.7817 20.9209 16.7057 21.6262 16.4134C22.3315 16.121 22.9348 15.6254 23.3599 14.989C23.7851 14.3526 24.013 13.6039 24.015 12.8376C24.0163 12.3264 23.9171 11.8201 23.723 11.3476C23.5288 10.8751 23.2437 10.4459 22.8838 10.0844C22.524 9.72303 22.0966 9.43659 21.6262 9.24161C21.1558 9.04662 20.6517 8.94693 20.1428 8.94826ZM20.3381 14.8049V15.3533C20.3389 15.3614 20.3379 15.3696 20.3351 15.3773C20.3324 15.385 20.328 15.3919 20.3222 15.3977C20.3165 15.4035 20.3096 15.4079 20.3019 15.4107C20.2943 15.4134 20.2861 15.4144 20.278 15.4137H20.0075C19.9994 15.4144 19.9913 15.4134 19.9836 15.4107C19.976 15.4079 19.969 15.4035 19.9633 15.3977C19.9575 15.3919 19.9531 15.385 19.9504 15.3773C19.9476 15.3696 19.9466 15.3614 19.9474 15.3533V14.8049C19.4653 14.7789 19.0032 14.603 18.6249 14.3017C18.6143 14.289 18.6085 14.273 18.6085 14.2564C18.6085 14.2399 18.6143 14.2238 18.6249 14.2112L18.9305 13.6728C18.9354 13.6648 18.942 13.658 18.9498 13.6528C18.9575 13.6475 18.9663 13.6441 18.9756 13.6426C18.9902 13.6376 19.006 13.6376 19.0207 13.6426C19.2932 13.8556 19.6159 13.9943 19.9574 14.0451V12.9885C19.0708 12.7873 18.655 12.4049 18.6349 11.7357C18.6362 11.5642 18.6716 11.3946 18.7392 11.2371C18.8068 11.0796 18.9052 10.9373 19.0285 10.8186C19.1518 10.6999 19.2975 10.6073 19.4571 10.5462C19.6166 10.485 19.7868 10.4567 19.9574 10.4627V10.2766C19.9567 10.2689 19.9576 10.2611 19.9601 10.2538C19.9625 10.2465 19.9665 10.2398 19.9717 10.2341C19.9769 10.2284 19.9832 10.2239 19.9902 10.2208C19.9972 10.2177 20.0048 10.2161 20.0125 10.2162H20.283C20.299 10.2162 20.3143 10.2225 20.3255 10.2339C20.3368 10.2452 20.3431 10.2605 20.3431 10.2766V10.4627C20.7465 10.4728 21.1362 10.6121 21.4552 10.8602C21.4608 10.8658 21.4653 10.8725 21.4683 10.8798C21.4713 10.8872 21.4729 10.895 21.4729 10.903C21.4729 10.9109 21.4713 10.9188 21.4683 10.9261C21.4653 10.9335 21.4608 10.9401 21.4552 10.9457L21.2098 11.5093C21.2075 11.5181 21.2023 11.5259 21.195 11.5314C21.1877 11.5369 21.1788 11.5397 21.1697 11.5395C21.1552 11.5453 21.1391 11.5453 21.1246 11.5395C20.8932 11.3604 20.6181 11.2475 20.3281 11.2124V12.2841C21.2048 12.5055 21.6356 12.8376 21.6606 13.5269C21.6857 14.2162 21.1947 14.7395 20.3381 14.8049Z" fill="white"/>
</g>
<defs>
<clipPath id="clip0_276_221">
<rect width="16" height="20" fill="white" transform="translate(8 6)"/>
</clipPath>
</defs>
</svg>
