<svg id="icon_app_gasto" data-name="icon app/gasto" xmlns="http://www.w3.org/2000/svg" viewBox="0 0 39.65 31.77"><defs><style>.cls-1{fill:#0a0a0a;}</style></defs><title>carro</title><path class="cls-1" d="M102.68,142.49h-2.22l-4.07-9.17c-4.83-4.51-20.7-3.63-24.74,0l-3.43,8.93H66.29c-1.51,1.13-2,2.45-1.5,4h2.15l-.61,1.44v13.27a1.81,1.81,0,0,0,1.11,1.1h5.64a1.87,1.87,0,0,0,1.15-1v-2.79H94.42v2.9a1.13,1.13,0,0,0,.89.88h6.44a.85.85,0,0,0,.64-.79V148.08l-.57-1.77,2.14-.07C104.64,144.78,104.11,143.55,102.68,142.49ZM76,152.1c-3.44.27-6.9.55-7.65-1v-2.38c1.83-1.5,4.73.08,7.65,1.7A1.39,1.39,0,0,1,76,152.1Zm-4.65-9.25,2.86-8.08a37.23,37.23,0,0,1,20.59,0c.93,2.86,1.83,5.58,2.64,8.08A62.34,62.34,0,0,1,71.38,142.85Zm29.1,8.24c-.75,1.56-4.21,1.28-7.65,1a1.38,1.38,0,0,1,0-1.69c2.92-1.62,5.82-3.2,7.65-1.7Z" transform="translate(-64.6 -130.26)"/></svg>