<svg id="icon_app_gasto" data-name="icon app/gasto" xmlns="http://www.w3.org/2000/svg" viewBox="0 0 35.54 39.02"><defs><style>.cls-1{fill:#0a0a0a;}</style></defs><title>combustible</title><path class="cls-1" d="M38.37,138.48l-7.59-7.58,2.72-2.72a3,3,0,0,1,1.55,0l6.05,6a1.66,1.66,0,0,1,0,1.46Z" transform="translate(-6.23 -126.63)"/><path class="cls-1" d="M38.37,139a.52.52,0,0,1-.36-.14l-7.58-7.59a.5.5,0,0,1,0-.71l2.72-2.72a.51.51,0,0,1,.24-.13,3.52,3.52,0,0,1,1.8,0,.45.45,0,0,1,.21.12l6.06,6.06a.4.4,0,0,1,.1.15,2.19,2.19,0,0,1,0,1.87.71.71,0,0,1-.1.14l-2.74,2.79a.47.47,0,0,1-.35.15Zm-6.88-8.08,6.87,6.87,2.32-2.37a1.12,1.12,0,0,0,0-.88l-5.89-5.9a2.8,2.8,0,0,0-1,0Z" transform="translate(-6.23 -126.63)"/><path class="cls-1" d="M39.35,144a108.51,108.51,0,0,1-8.9-8.73c-3.7-3.93-6.9-7.34-9.44-8.16H12a7.18,7.18,0,0,0-5.23,5.25v29.43a4.55,4.55,0,0,0,3.32,3.34H36a3.9,3.9,0,0,0,3.32-3.36ZM10.56,133.69v-.41a2.66,2.66,0,0,1,2.66-2.66h5.93a2.66,2.66,0,0,1,2.66,2.66v.41a2.66,2.66,0,0,1-2.66,2.66H13.22A2.66,2.66,0,0,1,10.56,133.69ZM22.4,160.52c-9.14-.8-6.9-12.53,0-18.69C27.77,146.14,33,159.5,22.4,160.52Z" transform="translate(-6.23 -126.63)"/><path class="cls-1" d="M36,165.65H9.93A5,5,0,0,1,6.26,162a.45.45,0,0,1,0-.16V132.38a.77.77,0,0,1,0-.15c1-3.06,2.81-4.88,5.59-5.58l.12,0H21a.4.4,0,0,1,.15,0c2.66.86,5.9,4.29,9.65,8.27a106.11,106.11,0,0,0,8.86,8.71.46.46,0,0,1,.18.38v17.77a4.43,4.43,0,0,1-3.71,3.85Zm-25.93-1H36a3.4,3.4,0,0,0,2.88-3l0-17.45a108.58,108.58,0,0,1-8.76-8.62c-3.63-3.85-6.75-7.17-9.16-8H12a6.69,6.69,0,0,0-4.79,4.83v29.26A4,4,0,0,0,10.11,164.65ZM22.4,161h0c-4-.34-5.5-2.56-6.1-4.36-1.44-4.33,1.11-11,5.81-15.2a.5.5,0,0,1,.64,0c3.93,3.15,7.41,10.43,6,15.09-.54,1.83-2.07,4.08-6.28,4.49Zm0-18.52c-4.21,3.95-6.49,10-5.2,13.84.72,2.16,2.51,3.44,5.19,3.68,2.9-.29,4.71-1.56,5.37-3.77C29,152.14,25.89,145.53,22.41,142.5Zm-3.26-5.65H13.22a3.16,3.16,0,0,1-3.16-3.16v-.41a3.16,3.16,0,0,1,3.16-3.16h5.93a3.16,3.16,0,0,1,3.16,3.16v.41A3.16,3.16,0,0,1,19.15,136.85Zm-5.93-5.73a2.16,2.16,0,0,0-2.16,2.16v.41a2.16,2.16,0,0,0,2.16,2.16h5.93a2.16,2.16,0,0,0,2.16-2.16v-.41a2.16,2.16,0,0,0-2.16-2.16Z" transform="translate(-6.23 -126.63)"/></svg>