<svg id="icon_app_gasto" data-name="icon app/gasto" xmlns="http://www.w3.org/2000/svg" viewBox="0 0 39.65 39.65"><defs><style>.cls-1{fill:#0a0a0a;}</style></defs><title>deuda</title><path class="cls-1" d="M85.44,86.55v5.1c1.85-.15,3.1-1.09,3.1-2.53C88.51,88.05,87.79,87.21,85.44,86.55Z" transform="translate(-64.6 -65.46)"/><path class="cls-1" d="M80.43,79.42c0,1.25.75,1.94,3,2.6V77C81.65,77.17,80.43,78.2,80.43,79.42Z" transform="translate(-64.6 -65.46)"/><path class="cls-1" d="M84.43,65.46a19.83,19.83,0,1,0,19.82,19.83A19.83,19.83,0,0,0,84.43,65.46Zm1,30v2.91a.29.29,0,0,1-.31.31H83.78a.29.29,0,0,1-.31-.31V95.41a12,12,0,0,1-6.79-2.57.36.36,0,0,1-.06-.47l1.56-2.75a.34.34,0,0,1,.25-.16.38.38,0,0,1,.22.1,10.29,10.29,0,0,0,4.82,2.06V86.11c-4.57-1-6.7-3-6.79-6.41s2.56-6.16,6.79-6.51v-.94c0-.18.09-.31.28-.31h1.38a.29.29,0,0,1,.31.31v.94a10,10,0,0,1,5.73,2,.33.33,0,0,1,.06.43L90,78.54c-.07.13-.13.16-.22.16a.35.35,0,0,1-.22-.06A8.48,8.48,0,0,0,85.44,77v5.57c4.51,1.12,6.73,2.81,6.85,6.35S89.85,95.06,85.44,95.41Z" transform="translate(-64.6 -65.46)"/></svg>