<svg id="icon_app_gasto" data-name="icon app/gasto" xmlns="http://www.w3.org/2000/svg" viewBox="0 0 31.94 39.75"><defs><style>.cls-1{fill:#0a0a0a;}</style></defs><title>factura</title><path class="cls-1" d="M32.13,65.41H10.8A2.77,2.77,0,0,0,8,68.18v34.21a2.77,2.77,0,0,0,2.77,2.77H32.13a2.77,2.77,0,0,0,2.77-2.77V87.26a8.67,8.67,0,0,1-2.86.48,8.78,8.78,0,0,1,0-17.55,8.67,8.67,0,0,1,2.86.48V68.18A2.77,2.77,0,0,0,32.13,65.41ZM11.9,73.87a.11.11,0,0,1,.1-.11h6.59a.11.11,0,0,1,.1.11v1a.11.11,0,0,1-.1.11H12a.11.11,0,0,1-.1-.11Zm0,7.41a.11.11,0,0,1,.1-.1h6.59a.11.11,0,0,1,.1.1v1a.1.1,0,0,1-.1.1H12a.1.1,0,0,1-.1-.1Zm15,15.43a.11.11,0,0,1-.1.1H12a.11.11,0,0,1-.1-.1v-1a.11.11,0,0,1,.1-.11H26.79a.11.11,0,0,1,.1.11Zm-.1-8.11a.1.1,0,0,1,.1.1v1a.1.1,0,0,1-.1.1H12a.1.1,0,0,1-.1-.1v-1a.1.1,0,0,1,.1-.1Z" transform="translate(-8.03 -65.41)"/><path class="cls-1" d="M32.66,79.47v2c.72-.06,1.2-.42,1.2-1S33.57,79.73,32.66,79.47Z" transform="translate(-8.03 -65.41)"/><path class="cls-1" d="M30.71,76.7c0,.48.3.75,1.18,1v-2C31.19,75.82,30.71,76.22,30.71,76.7Z" transform="translate(-8.03 -65.41)"/><path class="cls-1" d="M32.27,71.27A7.71,7.71,0,1,0,40,79,7.71,7.71,0,0,0,32.27,71.27Zm.39,11.64V84a.11.11,0,0,1-.12.12H32a.11.11,0,0,1-.12-.12V82.91a4.65,4.65,0,0,1-2.64-1,.14.14,0,0,1,0-.18l.61-1.07a.13.13,0,0,1,.09-.06.14.14,0,0,1,.09,0,4,4,0,0,0,1.87.8V79.3c-1.77-.4-2.6-1.16-2.64-2.49a2.55,2.55,0,0,1,2.64-2.53v-.37a.11.11,0,0,1,.11-.12h.54a.12.12,0,0,1,.12.12v.37a3.78,3.78,0,0,1,2.22.79.12.12,0,0,1,0,.17l-.49,1.12a.08.08,0,0,1-.08.06.12.12,0,0,1-.09,0,3.24,3.24,0,0,0-1.59-.65V77.9c1.75.44,2.61,1.1,2.66,2.47S34.37,82.78,32.66,82.91Z" transform="translate(-8.03 -65.41)"/></svg>