<svg width="32" height="32" viewBox="0 0 32 32" fill="none" xmlns="http://www.w3.org/2000/svg">
<circle cx="16" cy="16" r="16" fill="white"/>
<g clip-path="url(#clip0_276_375)">
<path fill-rule="evenodd" clip-rule="evenodd" d="M7.20202 11.2418H23.904C24.2259 11.2363 24.5373 11.3543 24.7727 11.571C24.8859 11.6706 24.9765 11.7928 25.0383 11.9295C25.1001 12.0662 25.1318 12.2143 25.1313 12.364V14.7132H19.8939C19.485 14.7076 19.0901 14.8596 18.7929 15.1371C18.6491 15.262 18.5335 15.4153 18.4534 15.5872C18.3734 15.759 18.3307 15.9455 18.3283 16.1346V19.1271C18.3285 19.3166 18.3701 19.5038 18.4503 19.676C18.5305 19.8481 18.6474 20.0012 18.7929 20.1246C19.0895 20.4035 19.4844 20.5573 19.8939 20.5536H25.1313V22.9027C25.1276 23.0517 25.094 23.1986 25.0325 23.3347C24.9709 23.4708 24.8826 23.5935 24.7727 23.6957C24.5307 23.8999 24.2224 24.0114 23.904 24.0099H7.20202C6.8913 24.0112 6.591 23.8994 6.35859 23.6957C6.24868 23.5935 6.1604 23.4708 6.09885 23.3347C6.0373 23.1986 6.0037 23.0517 6 22.9027V12.364C6.00164 12.2168 6.03437 12.0716 6.09612 11.9376C6.15787 11.8036 6.24726 11.6839 6.35859 11.586C6.4703 11.479 6.60231 11.3948 6.74705 11.3383C6.89179 11.2818 7.04641 11.2541 7.20202 11.2568V11.2418ZM19.8939 15.4912H25.3232C25.4101 15.4899 25.4964 15.5055 25.5772 15.5371C25.658 15.5687 25.7317 15.6158 25.794 15.6755C25.8564 15.7353 25.9063 15.8066 25.9407 15.8853C25.9752 15.9641 25.9936 16.0488 25.995 16.1346V19.1271C25.9936 19.2127 25.9752 19.2972 25.9407 19.3757C25.9061 19.4542 25.8562 19.5252 25.7937 19.5845C25.7313 19.6438 25.6576 19.6904 25.5768 19.7215C25.4961 19.7525 25.4099 19.7675 25.3232 19.7655H19.8939C19.8071 19.7675 19.7206 19.7526 19.6396 19.7216C19.5585 19.6906 19.4845 19.6441 19.4216 19.5848C19.3588 19.5255 19.3084 19.4546 19.2733 19.3761C19.2382 19.2975 19.2191 19.2129 19.2172 19.1271V16.1346C19.2212 15.9609 19.2945 15.7957 19.4213 15.6752C19.5481 15.5547 19.718 15.4885 19.8939 15.4912ZM7.18182 10.5785C10.9192 9.72563 17.5051 8.85282 21.2222 7.99995C21.3593 7.98864 21.4967 8.01765 21.6172 8.08333C21.7376 8.14901 21.8357 8.24841 21.899 8.36902L22.5354 10.5785H7.18182ZM22.5051 16.3541C22.7506 16.3706 22.986 16.4577 23.1821 16.6045C23.3783 16.7514 23.5266 16.9517 23.609 17.1808C23.6914 17.4099 23.7042 17.6577 23.6458 17.8939C23.5874 18.13 23.4604 18.3441 23.2803 18.5099C23.1003 18.6757 22.8751 18.7859 22.6325 18.827C22.3899 18.8681 22.1404 18.8382 21.9148 18.7411C21.6891 18.644 21.4971 18.4839 21.3624 18.2804C21.2277 18.0769 21.1562 17.839 21.1566 17.596C21.1697 17.2551 21.3189 16.9331 21.5716 16.7005C21.8242 16.4678 22.1598 16.3433 22.5051 16.3541Z" fill="#198E6B"/>
</g>
<defs>
<clipPath id="clip0_276_375">
<rect width="20" height="16" fill="white" transform="translate(6 8)"/>
</clipPath>
</defs>
</svg>
