<svg id="icon_app_gasto" data-name="icon app/gasto" xmlns="http://www.w3.org/2000/svg" viewBox="0 0 40.6 24.87"><defs><style>.cls-1{fill:#0a0a0a;}</style></defs><title>educación</title><path class="cls-1" d="M134.65,22.05V30.9c4.2,5.07,19.44,4.56,23.27,0V22.05l-9.12,2.37a8.69,8.69,0,0,1-4.93,0Z" transform="translate(-125.39 -10.14)"/><path class="cls-1" d="M146.05,35H146c-5.36,0-9.73-1.43-11.68-3.79a.47.47,0,0,1-.12-.32V22.05a.49.49,0,0,1,.2-.4.54.54,0,0,1,.43-.09L144,23.94a8.27,8.27,0,0,0,4.68,0l9.13-2.37a.5.5,0,0,1,.43.08.51.51,0,0,1,.19.4V30.9a.52.52,0,0,1-.11.32C156.37,33.53,151.57,35,146.05,35Zm-10.9-4.29C137,32.74,141.07,34,146,34c5,0,9.64-1.3,11.46-3.3v-8l-8.5,2.21a9.07,9.07,0,0,1-5.19,0l-8.58-2.21Z" transform="translate(-125.39 -10.14)"/><path class="cls-1" d="M165.65,16.55l-19.71-6.38a.42.42,0,0,0-.31,0l-19.89,6.38a.5.5,0,0,0-.35.48.52.52,0,0,0,.35.48l19.8,6.2a.4.4,0,0,0,.15,0,.37.37,0,0,0,.15,0l15.92-5v6.38h0a1.36,1.36,0,0,0,1,2.31,1.36,1.36,0,0,0,1.36-1.36,1.35,1.35,0,0,0-.39-.95h0V18.39a1,1,0,0,0-.05-.25l2-.63A.52.52,0,0,0,166,17,.5.5,0,0,0,165.65,16.55Z" transform="translate(-125.39 -10.14)"/></svg>