<svg width="32" height="32" viewBox="0 0 32 32" fill="none" xmlns="http://www.w3.org/2000/svg">
<circle cx="16" cy="16" r="16" fill="#FD724B"/>
<g clip-path="url(#clip0_276_212)">
<path d="M25.7478 21.084H6.25221C6.11292 21.084 6 21.2019 6 21.3472V21.7316C6 21.877 6.11292 21.9949 6.25221 21.9949H25.7478C25.8871 21.9949 26 21.877 26 21.7316V21.3472C26 21.2019 25.8871 21.084 25.7478 21.084Z" fill="white"/>
<path d="M16.4363 10.3848V9.73714C16.8802 9.67922 17.1929 9.54232 17.1929 9.38437C17.1929 9.22641 16.6583 9 16.0025 9C15.3468 9 14.8121 9.17375 14.8121 9.38437C14.8121 9.59498 15.1248 9.67922 15.5637 9.73714V10.39C11.3216 10.6006 6.79697 13.7019 6.48423 20.2677C6.48202 20.3031 6.48669 20.3386 6.49796 20.3721C6.50923 20.4056 6.52687 20.4364 6.54981 20.4625C6.59741 20.5144 6.66263 20.5446 6.7314 20.5468H25.309C25.3439 20.5464 25.3784 20.5388 25.4104 20.5243C25.4425 20.5098 25.4714 20.4888 25.4956 20.4625C25.5181 20.4372 25.5356 20.4073 25.5468 20.3747C25.5581 20.3422 25.563 20.3076 25.5612 20.273C25.2434 13.6808 20.6885 10.5743 16.4363 10.3848ZM14.5347 12.2908C12.9458 13.0332 11.367 14.8076 9.84363 17.5561C9.75943 17.5031 9.69354 17.4235 9.65546 17.3289C9.61739 17.2343 9.6091 17.1294 9.63178 17.0296C9.74779 15.7712 12.0984 13.0069 14.5498 12.2224C14.5498 12.2224 14.575 12.2224 14.5801 12.2224L14.5347 12.2908Z" fill="white"/>
<path d="M9.82345 17.5509C11.4023 14.6971 13.0063 12.9807 14.5246 12.2856C11.5536 13.2176 8.84994 17.0086 9.82345 17.5509ZM14.1564 12.4383C12.6835 13.2703 11.2257 14.9815 9.81337 17.5299C9.74595 17.4776 9.69472 17.4059 9.66602 17.3235C9.63733 17.2411 9.63244 17.1518 9.65195 17.0665C9.76292 15.8766 11.8613 13.3492 14.1564 12.4383Z" fill="white"/>
</g>
<defs>
<clipPath id="clip0_276_212">
<rect width="20" height="13" fill="white" transform="translate(6 9)"/>
</clipPath>
</defs>
</svg>
