<svg width="32" height="32" viewBox="0 0 32 32" fill="none" xmlns="http://www.w3.org/2000/svg">
<circle cx="16" cy="16" r="16" fill="#4BD2FD"/>
<g clip-path="url(#clip0_329_19)">
<path d="M25.2082 14.159H24.0884L22.0354 9.54079C19.5991 7.26946 11.5941 7.71265 9.55626 9.54079L7.82612 14.0381H6.8526C6.09093 14.6072 5.84377 15.272 6.09598 16.0526H7.18047L6.87277 16.7778V23.4608C6.91872 23.5891 6.99287 23.7054 7.08976 23.8013C7.18665 23.8971 7.30383 23.9701 7.43267 24.0148H10.2776C10.4042 23.9762 10.5214 23.9115 10.6213 23.8247C10.7213 23.7379 10.8018 23.6311 10.8576 23.5112V22.1061H21.0418V23.5666C21.0645 23.6764 21.1193 23.7771 21.1991 23.8559C21.279 23.9348 21.3804 23.9883 21.4907 24.0098H24.7391C24.8287 23.9871 24.9085 23.936 24.9667 23.8644C25.0248 23.7927 25.0583 23.7041 25.0619 23.6119V16.9742L24.7744 16.0828L25.8539 16.0476C26.1969 15.3123 25.9295 14.6928 25.2082 14.159ZM11.7505 18.9988C10.0153 19.1347 8.27 19.2758 7.89169 18.4951V17.2965C8.81477 16.5411 10.2776 17.3368 11.7505 18.1527C11.8429 18.2744 11.893 18.423 11.893 18.5757C11.893 18.7285 11.8429 18.8771 11.7505 18.9988ZM9.40493 14.3403L10.8476 10.271C14.2407 9.29622 17.8403 9.29622 21.2334 10.271C21.7025 11.7114 22.1565 13.0812 22.5651 14.3403C18.2323 15.2649 13.7528 15.2649 9.42006 14.3403H9.40493ZM24.0834 18.4901C23.7051 19.2758 21.9598 19.1347 20.2246 18.9937C20.1301 18.8719 20.0788 18.7222 20.0788 18.5682C20.0788 18.4141 20.1301 18.2644 20.2246 18.1426C21.6975 17.3267 23.1603 16.531 24.0834 17.2865V18.4901Z" fill="white"/>
</g>
<defs>
<clipPath id="clip0_329_19">
<rect width="20" height="16" fill="white" transform="translate(6 8)"/>
</clipPath>
</defs>
</svg>
