<svg width="32" height="32" viewBox="0 0 32 32" fill="none" xmlns="http://www.w3.org/2000/svg">
<circle cx="16" cy="16" r="16" fill="#AF4BFD"/>
<g clip-path="url(#clip0_326_12)">
<path d="M23.278 12.0737L19.4339 8.18854L20.8115 6.79438C21.0686 6.72479 21.3393 6.72479 21.5965 6.79438L24.6607 9.86973C24.717 9.98621 24.7463 10.1142 24.7463 10.2439C24.7463 10.3736 24.717 10.5016 24.6607 10.6181L23.278 12.0737Z" fill="white"/>
<path d="M23.278 12.3404C23.2104 12.3411 23.1451 12.3154 23.0957 12.2686L19.2566 8.37833C19.2329 8.35451 19.214 8.32616 19.2012 8.29493C19.1883 8.2637 19.1817 8.2302 19.1817 8.19637C19.1817 8.16253 19.1883 8.12904 19.2012 8.09781C19.214 8.06658 19.2329 8.03824 19.2566 8.01441L20.6342 6.62025C20.668 6.58728 20.71 6.56424 20.7558 6.55362C21.0545 6.47366 21.3687 6.47366 21.6674 6.55362C21.7078 6.56392 21.7445 6.58519 21.7738 6.61513L24.843 9.72123C24.8654 9.74262 24.8828 9.76892 24.8936 9.79811C24.9636 9.94797 24.9998 10.1116 24.9998 10.2774C24.9998 10.4431 24.9636 10.6067 24.8936 10.7566C24.8797 10.7825 24.8627 10.8066 24.843 10.8284L23.4553 12.2584C23.4327 12.283 23.4052 12.3026 23.3747 12.3158C23.3441 12.3291 23.3112 12.3357 23.278 12.3353V12.3404ZM19.7935 8.19893L23.2729 11.7202L24.4479 10.5054C24.478 10.4342 24.4936 10.3574 24.4936 10.2799C24.4936 10.2024 24.478 10.1257 24.4479 10.0544L21.4648 7.0303C21.2974 6.99954 21.1258 6.99954 20.9584 7.0303L19.7935 8.19893Z" fill="white"/>
<path d="M23.7743 14.9032C22.1883 13.5003 20.6833 12.0063 19.2667 10.4286C17.3928 8.41421 15.7721 6.66639 14.4856 6.24609H9.92234C9.28077 6.40848 8.69511 6.74484 8.22837 7.219C7.76164 7.69315 7.4315 8.28713 7.27349 8.93702V24.0216C7.3728 24.435 7.58197 24.8131 7.87836 25.1148C8.17475 25.4166 8.54706 25.6306 8.95498 25.7335H22.0777C22.5055 25.6721 22.9016 25.4704 23.2053 25.1594C23.5091 24.8483 23.7036 24.445 23.7591 24.0113L23.7743 14.9032ZM9.19302 9.61872V9.40857C9.19302 9.04698 9.33496 8.70019 9.58761 8.4445C9.84026 8.18881 10.1829 8.04517 10.5402 8.04517H13.5436C13.7205 8.04517 13.8957 8.08044 14.0592 8.14895C14.2226 8.21747 14.3711 8.3179 14.4962 8.4445C14.6213 8.5711 14.7206 8.7214 14.7883 8.88682C14.856 9.05223 14.8908 9.22953 14.8908 9.40857V9.61872C14.8908 9.79777 14.856 9.97506 14.7883 10.1405C14.7206 10.3059 14.6213 10.4562 14.4962 10.5828C14.3711 10.7094 14.2226 10.8098 14.0592 10.8783C13.8957 10.9469 13.7205 10.9821 13.5436 10.9821H10.5402C10.1829 10.9821 9.84026 10.8385 9.58761 10.5828C9.33496 10.3271 9.19302 9.98032 9.19302 9.61872ZM15.1896 23.3706C10.5605 22.9606 11.695 16.9483 15.1896 13.7909C17.9094 16.0001 20.5582 22.8478 15.1896 23.3706Z" fill="white"/>
<path d="M22.0777 26.0002H8.87394C8.42494 25.8897 8.01438 25.6569 7.68674 25.3272C7.3591 24.9974 7.12687 24.5832 7.01519 24.1294C7.01035 24.1023 7.01035 24.0745 7.01519 24.0474V8.94743C7.01272 8.92186 7.01272 8.89611 7.01519 8.87054C7.52166 7.30211 8.43838 6.36926 9.84637 6.01047H9.90715H14.4806C14.5057 6.00562 14.5315 6.00562 14.5566 6.01047C15.9038 6.45127 17.5447 8.20934 19.444 10.2493C20.8523 11.8249 22.3507 13.3156 23.9313 14.7137C23.9607 14.7365 23.9843 14.7661 24.0002 14.7999C24.0161 14.8338 24.0237 14.871 24.0225 14.9085V24.0166C23.9645 24.5078 23.7495 24.9663 23.4103 25.3225C23.0712 25.6787 22.6263 25.9131 22.1435 25.99L22.0777 26.0002ZM8.94485 25.4877H22.0777C22.4547 25.4309 22.8024 25.2491 23.0664 24.9708C23.3303 24.6926 23.4956 24.3335 23.5363 23.95V15.0059C21.9762 13.6191 20.4949 12.144 19.0996 10.5876C17.2611 8.61427 15.6809 6.91257 14.4603 6.48715H9.92234C9.33617 6.64256 8.80191 6.95422 8.37522 7.38964C7.94853 7.82506 7.64503 8.36832 7.49634 8.96281V23.9602C7.57928 24.3266 7.76016 24.6629 8.01919 24.9323C8.27823 25.2017 8.60546 25.3938 8.96511 25.4877H8.94485ZM15.1896 23.6168C13.1638 23.4426 12.404 22.3047 12.1002 21.3821C11.3708 19.1627 12.6624 15.7439 15.0428 13.5912C15.0883 13.5528 15.1456 13.5318 15.2048 13.5318C15.2641 13.5318 15.3214 13.5528 15.3669 13.5912C17.3573 15.2058 19.1199 18.9372 18.4057 21.3257C18.1322 22.2637 17.3573 23.4169 15.2251 23.6271L15.1896 23.6168ZM15.1896 14.1243C13.0574 16.1489 11.9026 19.2498 12.556 21.2181C12.9207 22.3252 13.8272 22.9813 15.1846 23.1043C16.6533 22.9556 17.5701 22.3047 17.9043 21.1719C18.5324 19.0756 16.9572 15.6876 15.1947 14.1345L15.1896 14.1243ZM13.5385 11.2283H10.5402C10.1158 11.2283 9.70869 11.0577 9.40855 10.7539C9.1084 10.4502 8.93979 10.0382 8.93979 9.60863V9.39847C8.93979 8.96891 9.1084 8.55694 9.40855 8.25319C9.70869 7.94944 10.1158 7.7788 10.5402 7.7788H13.5436C13.9681 7.7788 14.3752 7.94944 14.6753 8.25319C14.9754 8.55694 15.1441 8.96891 15.1441 9.39847V9.60863C15.1454 9.82219 15.105 10.0339 15.0252 10.2316C14.9453 10.4293 14.8276 10.6091 14.6789 10.7606C14.5301 10.912 14.3533 11.0323 14.1584 11.1143C13.9636 11.1963 13.7546 11.2386 13.5436 11.2386L13.5385 11.2283ZM10.5352 8.29136C10.245 8.29136 9.96677 8.408 9.76161 8.61562C9.55645 8.82325 9.44119 9.10485 9.44119 9.39847V9.60863C9.44119 9.90225 9.55645 10.1839 9.76161 10.3915C9.96677 10.5991 10.245 10.7158 10.5352 10.7158H13.5385C13.8287 10.7158 14.1069 10.5991 14.3121 10.3915C14.5173 10.1839 14.6325 9.90225 14.6325 9.60863V9.39847C14.6325 9.10485 14.5173 8.82325 14.3121 8.61562C14.1069 8.408 13.8287 8.29136 13.5385 8.29136H10.5352Z" fill="white"/>
</g>
<defs>
<clipPath id="clip0_326_12">
<rect width="18" height="20" fill="white" transform="translate(7 6)"/>
</clipPath>
</defs>
</svg>
