<svg width="32" height="32" viewBox="0 0 32 32" fill="none" xmlns="http://www.w3.org/2000/svg">
<circle cx="16" cy="16" r="16" fill="#FD4B6B"/>
<g clip-path="url(#clip0_276_228)">
<path d="M16.512 16.6382V19.2107C17.4451 19.135 18.0756 18.6609 18.0756 17.9345C18.0605 17.3948 17.6973 16.9711 16.512 16.6382Z" fill="white"/>
<path d="M13.9849 13.042C13.9849 13.6725 14.3632 14.0205 15.4981 14.3534V11.8213C14.6002 11.907 13.9849 12.4266 13.9849 13.042Z" fill="white"/>
<path d="M16.0026 6C14.024 5.999 12.0897 6.58479 10.4441 7.68328C8.79852 8.78176 7.51569 10.3436 6.75784 12.1712C6 13.9989 5.8012 16.0102 6.18658 17.9508C6.57196 19.8915 7.52421 21.6742 8.92289 23.0736C10.3216 24.473 12.1038 25.4261 14.0443 25.8125C15.9847 26.1988 17.9961 26.0011 19.8242 25.2441C21.6522 24.4872 23.2146 23.2052 24.314 21.5602C25.4133 19.9151 26 17.9811 26 16.0025C26 13.3506 24.9469 10.8071 23.0722 8.93146C21.1974 7.05576 18.6545 6.00134 16.0026 6ZM16.507 21.1324V22.6003C16.5085 22.6212 16.5055 22.6422 16.4981 22.6618C16.4908 22.6815 16.4793 22.6993 16.4645 22.7142C16.4497 22.729 16.4318 22.7405 16.4122 22.7478C16.3925 22.7551 16.3715 22.7581 16.3506 22.7566H15.6747C15.6538 22.7581 15.6328 22.7551 15.6131 22.7478C15.5935 22.7405 15.5756 22.729 15.5608 22.7142C15.546 22.6993 15.5345 22.6815 15.5272 22.6618C15.5198 22.6422 15.5168 22.6212 15.5183 22.6003V21.1072C14.2702 21.0391 13.0738 20.5862 12.0934 19.8108C12.0605 19.7817 12.0393 19.7416 12.0337 19.698C12.0282 19.6544 12.0386 19.6103 12.0631 19.5738L12.85 18.1866C12.8635 18.1645 12.8819 18.1458 12.9038 18.1318C12.9256 18.1178 12.9503 18.109 12.9761 18.1059C13.0176 18.1102 13.0565 18.1279 13.0871 18.1564C13.7942 18.7068 14.6318 19.0648 15.5183 19.1955V16.4161C13.2132 15.9117 12.1388 14.9029 12.0934 13.1828C12.048 11.4628 13.3847 10.0757 15.5183 9.89912V9.42497C15.5183 9.33418 15.5637 9.2686 15.6596 9.2686H16.3557C16.3766 9.2671 16.3976 9.27012 16.4172 9.27745C16.4369 9.28477 16.4547 9.29624 16.4696 9.31107C16.4844 9.3259 16.4959 9.34375 16.5032 9.3634C16.5105 9.38305 16.5135 9.40405 16.512 9.42497V9.89912C17.5567 9.92786 18.5667 10.2804 19.4023 10.9079C19.4327 10.9343 19.4526 10.9708 19.4581 11.0107C19.4637 11.0506 19.4546 11.0911 19.4326 11.1248L18.8121 12.5977C18.7768 12.6633 18.7466 12.6784 18.7012 12.6784C18.6618 12.681 18.6228 12.6704 18.5902 12.6482C17.9831 12.193 17.2659 11.9075 16.512 11.8209V14.6305C18.7869 15.1955 19.9067 16.0479 19.9673 17.8335C20.0278 19.6192 18.7365 20.9306 16.512 21.1072L16.507 21.1324Z" fill="white"/>
</g>
<defs>
<clipPath id="clip0_276_228">
<rect width="20" height="20" fill="white" transform="translate(6 6)"/>
</clipPath>
</defs>
</svg>
