<svg width="32" height="32" viewBox="0 0 32 32" fill="none" xmlns="http://www.w3.org/2000/svg">
<circle cx="16" cy="16" r="16" fill="#FD4B4B"/>
<path d="M25.9139 15.6916L16.161 7.05758C16.1161 7.02033 16.06 7 16.0022 7C15.9443 7 15.8883 7.02033 15.8433 7.05758L6.08539 15.6916C6.04747 15.7264 6.02052 15.7719 6.00795 15.8224C5.99538 15.8729 5.99776 15.926 6.01479 15.9751C6.03082 16.0249 6.06194 16.0683 6.10363 16.0988C6.14533 16.1294 6.19545 16.1456 6.24677 16.1452H7.91091V24.9442C7.91091 25.2176 8.01717 25.4798 8.20632 25.6732C8.39546 25.8665 8.65199 25.9751 8.91948 25.9751H14.3809V20.1194C14.3809 19.9827 14.434 19.8516 14.5286 19.7549C14.6232 19.6583 14.7514 19.604 14.8852 19.604H17.1192C17.2529 19.604 17.3812 19.6583 17.4758 19.7549C17.5703 19.8516 17.6235 19.9827 17.6235 20.1194V25.9751H23.0798C23.3473 25.9751 23.6039 25.8665 23.793 25.6732C23.9822 25.4798 24.0884 25.2176 24.0884 24.9442V16.1452H25.7526C25.8039 16.1456 25.854 16.1294 25.8957 16.0988C25.9374 16.0683 25.9685 16.0249 25.9845 15.9751C26.003 15.9262 26.0061 15.8726 25.9935 15.8218C25.9808 15.771 25.953 15.7255 25.9139 15.6916Z" fill="white"/>
</svg>
